<svg id="Layer_5" data-name="Layer 5" xmlns="http://www.w3.org/2000/svg" viewBox="0 0 86 75"><defs><style>.cls-1{fill:#fff;}</style></defs><title>icon-support-chat-white</title><path class="cls-1" d="M14.81,72.88l.63-9.69.36-5.46q-1-.66-2-1.37a33.85,33.85,0,0,1-9.3-10.27A26,26,0,0,1,1,33.11,27.39,27.39,0,0,1,8.56,14.63,41,41,0,0,1,24.12,4.24a53.57,53.57,0,0,1,36.65-.42A41.36,41.36,0,0,1,77.45,14.63,27.4,27.4,0,0,1,85,33.11a26,26,0,0,1-3.53,13,34.17,34.17,0,0,1-10.1,10.84A49.38,49.38,0,0,1,43,65.42a54.12,54.12,0,0,1-9.77-.88Q32,64.31,30.76,64l-8.81,5.59-6,3.83-1.18.75Z"/></svg>