<svg id="Layer_1" data-name="Layer 1" xmlns="http://www.w3.org/2000/svg" viewBox="0 0 92 75"><defs><style>.cls-1{fill:#fff}</style></defs><title>noun_486551_cc_export</title><path class="cls-1" d="M69.83 33.7c0 15.83-14.35 28.66-32 28.66-1.82 0-3.84.51-5.35-.4-7.43-4.46-16.67 8.59-20.1 6.7-3.19-1.76 4-11.86.35-17.15C9.58 47.09 5 41.57 5 34.83 5 19 19.69 6.33 37.39 6.33S69.83 17.88 69.83 33.7z" id="Layer_3" data-name="Layer 3"/><g id="Layer_4" data-name="Layer 4"><path class="cls-1" d="M88.26 44.45c0 4.14-.71 8.49-3.5 11.18-6.26 6 .28 10.5-3.43 13.22-3 2.24-6.22-4.53-13.57-4.41C54.73 64.67 53 64 51.5 53.83c0-5 15.81-4.24 17.55-9.33 3.62-10.6 2.62-12.78 1.65-18.67 11.3 0 17.56 7.57 17.56 18.62z"/><path class="cls-1" d="M67.76 64.45c-13 .22-12.63.22-13.8-2.61C56.33 56.33 67.5 54.52 69 44.5"/></g><path d="M85.89 58.06A21.5 21.5 0 0 0 91 44.25c0-10.7-8.4-20.1-20.14-22.79C65.29 10.17 52.39 2.23 37.39 2.23 17.33 2.23 1 16.44 1 33.9a28.8 28.8 0 0 0 6.85 18.5 23.27 23.27 0 0 0 1.71 1.93 3.55 3.55 0 0 1 1 2.38L8.31 69.25a4 4 0 0 0 .7 3.4 3.11 3.11 0 0 0 2.43 1.12 4.46 4.46 0 0 0 2.49-.85l11.93-8.06a3.9 3.9 0 0 1 1.86-.47 1.93 1.93 0 0 1 .4 0 51.28 51.28 0 0 0 9.27 1.14 41.15 41.15 0 0 0 11.67-1.68A29.64 29.64 0 0 0 64 67.83a37.71 37.71 0 0 0 6.84-.83 2.29 2.29 0 0 1 1.16.2l8.62 5.8a3.93 3.93 0 0 0 2.18.72 2.9 2.9 0 0 0 1.6-.47 3.37 3.37 0 0 0 1.29-3.57l-1.65-9a2 2 0 0 1 .55-1.17 16.57 16.57 0 0 0 1.3-1.45zM29.14 59.8a8.54 8.54 0 0 0-5.93 1.13l-9.77 6.6 1.82-10a8 8 0 0 0-2.45-6.67s-.37-.36-1.32-1.51A24.11 24.11 0 0 1 5.74 33.9C5.74 19.05 19.94 7 37.39 7S69 19.05 69 33.9 54.85 60.83 37.39 60.83a47.53 47.53 0 0 1-8.25-1.03zm53.1-4.8c-.63.76-.88 1-.88 1a6.45 6.45 0 0 0-2 5.44l1 5.7-5.79-3.91a6.71 6.71 0 0 0-4.79-.91 33.48 33.48 0 0 1-5.83.73 25.55 25.55 0 0 1-8.87-1.56c11.17-5.38 18.71-15.73 18.71-27.59a27.69 27.69 0 0 0-.89-6.9c7.94 3 13.36 9.71 13.36 17.25A16.8 16.8 0 0 1 82.24 55z"/><path d="M52.55 31.72H22.23a2.18 2.18 0 0 0 0 4.36h30.32a2.18 2.18 0 0 0 0-4.36zm0-9.45H22.23a2.18 2.18 0 0 0 0 4.36h30.32a2.18 2.18 0 0 0 0-4.36zm0 18.9H22.23a2.18 2.18 0 0 0 0 4.36h30.32a2.18 2.18 0 1 0 0-4.36z"/></svg>